<svg width="48" height="48" viewBox="0 0 48 48" fill="none" xmlns="http://www.w3.org/2000/svg">
<path d="M1.5 12C1.5 6.20101 6.20101 1.5 12 1.5H36C41.799 1.5 46.5 6.20101 46.5 12V36C46.5 41.799 41.799 46.5 36 46.5H12C6.20101 46.5 1.5 41.799 1.5 36V12Z" fill="white"/>
<path d="M1.5 12C1.5 6.20101 6.20101 1.5 12 1.5H36C41.799 1.5 46.5 6.20101 46.5 12V36C46.5 41.799 41.799 46.5 36 46.5H12C6.20101 46.5 1.5 41.799 1.5 36V12Z" stroke="#36AA78" stroke-width="3"/>
<g clip-path="url(#clip0_49_2130)">
<path fill-rule="evenodd" clip-rule="evenodd" d="M35.3777 14.054C36.1075 14.6571 36.2103 15.7377 35.6071 16.4675L21.8243 33.1462L21.8201 33.1512C21.5066 33.5276 21.1132 33.8295 20.6684 34.0347C20.2235 34.2401 19.7386 34.3436 19.2487 34.338C18.7508 34.3318 18.2593 34.2128 17.8139 33.9902C17.3701 33.7683 16.982 33.449 16.6788 33.0562L12.3611 27.5049C11.7798 26.7575 11.9144 25.6805 12.6618 25.0992C13.4091 24.518 14.4862 24.6526 15.0674 25.3999L19.2907 30.8299L32.9642 14.2834C33.5672 13.5536 34.6479 13.4509 35.3777 14.054Z" fill="#36AA78"/>
</g>
<defs>
<clipPath id="clip0_49_2130">
<rect width="24" height="24" fill="white" transform="translate(12 12)"/>
</clipPath>
</defs>
</svg>
